<svg width="1920" height="1080" viewBox="0 0 1920 1080" fill="none" xmlns="http://www.w3.org/2000/svg">
<rect width="1920" height="1080" fill="#FE5000"/>
<mask id="path-1-inside-1_7_563" fill="white">
<path fill-rule="evenodd" clip-rule="evenodd" d="M760 540H1160C1160 650.457 1070.46 740 960 740C849.543 740 760 650.457 760 540Z"/>
</mask>
<path fill-rule="evenodd" clip-rule="evenodd" d="M760 540H1160C1160 650.457 1070.46 740 960 740C849.543 740 760 650.457 760 540Z" fill="#101820"/>
<path d="M760 540H755V535H760V540ZM1160 540V535H1165V540H1160ZM760 535H1160V545H760V535ZM1165 540C1165 653.218 1073.22 745 960 745V735C1067.7 735 1155 647.696 1155 540H1165ZM960 745C846.782 745 755 653.218 755 540H765C765 647.696 852.304 735 960 735V745Z" fill="#101820" mask="url(#path-1-inside-1_7_563)"/>
<mask id="path-3-inside-2_7_563" fill="white">
<path fill-rule="evenodd" clip-rule="evenodd" d="M760 540H1160C1160 429.543 1070.46 340 960 340C849.543 340 760 429.543 760 540Z"/>
</mask>
<path fill-rule="evenodd" clip-rule="evenodd" d="M760 540H1160C1160 429.543 1070.46 340 960 340C849.543 340 760 429.543 760 540Z" fill="#FE5000"/>
<path d="M760 540H755V545H760V540ZM1160 540V545H1165V540H1160ZM760 545H1160V535H760V545ZM1165 540C1165 426.782 1073.22 335 960 335V345C1067.7 345 1155 432.304 1155 540H1165ZM960 335C846.782 335 755 426.782 755 540H765C765 432.304 852.304 345 960 345V335Z" fill="#101820" mask="url(#path-3-inside-2_7_563)"/>
<circle cx="960" cy="540" r="130" fill="#FE5000" stroke="#101820" stroke-width="5"/>
<circle cx="960" cy="540" r="125" fill="#101820"/>
<path d="M895.461 596.25L959.75 462.19L1024.04 596.25H895.461Z" stroke="#FE5000" stroke-width="30"/>
<path d="M937.84 572.737L913.171 623.461" stroke="#101820" stroke-width="26"/>
<path d="M793.926 575.775L791.824 563.516L785.164 562.371L784.5 558.5L814.288 563.682L815.014 567.916L788.704 583.019L788.041 579.148L793.926 575.775ZM796.741 574.195L810.115 566.584L794.999 564.032L796.741 574.195Z" fill="#FE5000"/>
<path d="M796.294 598.353L799.597 607.779L796.739 608.816L792.204 595.875L819.123 586.105L820.355 589.62L796.294 598.353Z" fill="#FE5000"/>
<path d="M824.989 609.727L816.589 614.307L821.435 623.512L818.731 624.986L813.885 615.781L805.232 620.499L810.65 630.791L807.946 632.265L800.792 618.675L825.957 604.955L833.111 618.545L830.407 620.019L824.989 609.727Z" fill="#FE5000"/>
<path d="M846.027 637.515L829.375 650.526C827.521 651.975 825.598 652.559 823.605 652.279C821.633 651.982 819.932 650.885 818.5 648.987C817.052 647.068 816.452 645.092 816.701 643.06C816.971 641.012 818.087 639.221 820.049 637.688L822.295 640.666C821.212 641.546 820.532 642.529 820.253 643.613C819.991 644.719 820.28 645.828 821.119 646.941C821.958 648.053 822.907 648.629 823.965 648.669C825.045 648.692 826.091 648.308 827.104 647.516L843.756 634.505L846.027 637.515Z" fill="#FE5000"/>
<path d="M849.47 673.107L840.271 664.688L834.369 667.899L831.464 665.24L857.903 650.93L861.08 653.838L849.861 682.078L846.956 679.419L849.47 673.107ZM850.692 670.114L856.436 655.811L843.067 663.135L850.692 670.114Z" fill="#FE5000"/>
<path d="M879.111 701.292L875.892 699.395L874.189 672.008L862.946 691.766L859.727 689.869L873.866 665.021L877.085 666.918L878.809 694.269L890.032 674.547L893.25 676.444L879.111 701.292Z" fill="#FE5000"/>
<path d="M909.512 683.575C912.479 684.549 914.865 685.95 916.67 687.778C918.51 689.589 919.677 691.709 920.17 694.14C920.689 696.58 920.508 699.191 919.625 701.974C918.743 704.757 917.39 706.983 915.567 708.653C913.779 710.306 911.618 711.319 909.086 711.694C906.587 712.05 903.855 711.742 900.888 710.767L892.416 707.985L901.041 680.792L909.512 683.575ZM901.816 707.841C905.329 708.995 908.303 708.952 910.736 707.713C913.178 706.447 914.931 704.136 915.995 700.781C917.067 697.4 916.967 694.452 915.696 691.938C914.45 689.433 912.084 687.607 908.596 686.462L903.677 684.846L896.897 706.226L901.816 707.841Z" fill="#FE5000"/>
<path d="M943.205 720.295L937.722 707.922L933.23 707.402L931.935 718.99L928.219 718.56L931.386 690.221L940.573 691.284C942.724 691.532 944.493 692.108 945.882 693.01C947.297 693.915 948.303 695.034 948.898 696.365C949.494 697.697 949.703 699.163 949.524 700.762C949.306 702.714 948.542 704.369 947.232 705.728C945.949 707.089 944.151 707.884 941.837 708.11L947.656 720.81L943.205 720.295ZM933.561 704.434L939.033 705.067C941.048 705.3 942.613 704.987 943.729 704.128C944.849 703.242 945.501 701.972 945.686 700.318C945.873 698.638 945.515 697.278 944.611 696.24C943.734 695.205 942.274 694.569 940.233 694.333L934.761 693.7L933.561 704.434Z" fill="#FE5000"/>
<path d="M973.238 720.92C970.592 721.18 968.12 720.806 965.823 719.798C963.523 718.762 961.627 717.208 960.137 715.134C958.672 713.031 957.808 710.594 957.546 707.825C957.283 705.055 957.676 702.509 958.722 700.186C959.793 697.834 961.362 695.94 963.428 694.504C965.492 693.041 967.846 692.18 970.492 691.921C973.165 691.658 975.651 692.045 977.951 693.08C980.249 694.088 982.129 695.63 983.592 697.707C985.055 699.783 985.919 702.22 986.184 705.016C986.448 707.813 986.058 710.373 985.011 712.695C983.965 715.018 982.41 716.91 980.346 718.373C978.28 719.809 975.91 720.658 973.238 720.92ZM972.933 717.703C974.924 717.507 976.667 716.871 978.161 715.792C979.683 714.711 980.813 713.271 981.551 711.472C982.316 709.671 982.592 707.643 982.379 705.389C982.163 703.109 981.512 701.172 980.425 699.579C979.363 697.957 977.997 696.762 976.328 695.993C974.658 695.225 972.815 694.94 970.796 695.138C968.778 695.336 967.022 695.974 965.527 697.053C964.033 698.131 962.903 699.571 962.137 701.372C961.397 703.144 961.134 705.171 961.35 707.451C961.564 709.705 962.202 711.643 963.264 713.266C964.353 714.885 965.732 716.079 967.401 716.847C969.098 717.613 970.942 717.898 972.933 717.703Z" fill="#FE5000"/>
<path d="M1026.5 685.971C1027.4 688.169 1027.39 690.32 1026.48 692.427C1025.58 694.497 1023.59 696.184 1020.52 697.487L1015.45 699.635L1019.96 710.661L1016.52 712.119L1005.71 685.71L1014.22 682.104C1017.2 680.843 1019.75 680.607 1021.88 681.395C1024.03 682.172 1025.57 683.698 1026.5 685.971ZM1019.35 694.645C1021.27 693.833 1022.51 692.818 1023.08 691.6C1023.64 690.382 1023.61 689.002 1022.98 687.461C1021.65 684.203 1019.12 683.364 1015.38 684.946L1010.32 687.093L1014.28 696.793L1019.35 694.645Z" fill="#FE5000"/>
<path d="M1055.94 692.681C1053.76 694.199 1051.43 695.073 1048.95 695.305C1046.45 695.514 1044.06 695.068 1041.77 693.968C1039.48 692.829 1037.57 691.104 1036.01 688.792C1034.45 686.48 1033.58 684.047 1033.37 681.492C1033.18 678.898 1033.64 676.466 1034.75 674.194C1035.84 671.9 1037.48 669.995 1039.65 668.477C1041.85 666.944 1044.2 666.073 1046.7 665.864C1049.18 665.633 1051.56 666.075 1053.83 667.191C1056.09 668.307 1058.01 670.032 1059.58 672.367C1061.15 674.701 1062.04 677.146 1062.24 679.701C1062.44 682.256 1062 684.681 1060.9 686.975C1059.79 689.246 1058.14 691.148 1055.94 692.681ZM1054.13 689.996C1055.77 688.854 1056.98 687.444 1057.77 685.766C1058.57 684.073 1058.86 682.254 1058.65 680.31C1058.45 678.35 1057.72 676.43 1056.45 674.549C1055.17 672.645 1053.68 671.257 1051.97 670.384C1050.27 669.472 1048.5 669.085 1046.68 669.221C1044.86 669.358 1043.12 670.005 1041.46 671.163C1039.8 672.321 1038.58 673.738 1037.79 675.416C1037.01 677.094 1036.72 678.913 1036.91 680.872C1037.12 682.794 1037.86 684.706 1039.14 686.61C1040.41 688.491 1041.89 689.887 1043.59 690.799C1045.32 691.694 1047.09 692.074 1048.91 691.937C1050.75 691.785 1052.49 691.138 1054.13 689.996Z" fill="#FE5000"/>
<path d="M1073.66 638.45L1087.1 666.083L1084.19 669.256L1056.17 657.518L1058.86 654.587L1082.81 664.943L1071 641.351L1073.66 638.45Z" fill="#FE5000"/>
<path d="M1082.99 630.873L1091.01 636.076L1096.53 627.257L1099.12 628.932L1093.59 637.751L1101.86 643.112L1108.03 633.251L1110.62 634.926L1102.46 647.946L1078.42 632.357L1086.58 619.337L1089.16 621.012L1082.99 630.873Z" fill="#FE5000"/>
<path d="M1094.18 604.651C1095.32 601.756 1096.85 599.476 1098.77 597.811C1100.67 596.111 1102.85 595.11 1105.29 594.807C1107.74 594.48 1110.33 594.868 1113.04 595.972C1115.75 597.077 1117.89 598.608 1119.44 600.566C1120.98 602.489 1121.87 604.734 1122.09 607.301C1122.31 609.833 1121.84 612.546 1120.71 615.442L1117.46 623.71L1090.94 612.92L1094.18 604.651ZM1117.85 614.281C1119.2 610.852 1119.33 607.869 1118.23 605.333C1117.12 602.786 1114.92 600.847 1111.65 599.516C1108.35 598.174 1105.42 598.041 1102.85 599.116C1100.29 600.166 1098.34 602.393 1097 605.797L1095.11 610.598L1115.97 619.082L1117.85 614.281Z" fill="#FE5000"/>
<path d="M1127.18 570.338L1125.07 582.598L1130.96 585.97L1130.3 589.842L1103.99 574.698L1104.72 570.464L1134.5 565.322L1133.84 569.194L1127.18 570.338ZM1124 570.855L1108.88 573.406L1122.26 581.017L1124 570.855Z" fill="#FE5000"/>
<path d="M806.277 506.75L803.849 517.675L809.206 521.05L808.44 524.5L784.5 509.352L785.339 505.578L813.295 502.65L812.529 506.1L806.277 506.75ZM803.298 507.034L789.11 508.467L801.285 516.09L803.298 507.034Z" fill="#101820"/>
<path d="M814.767 489.049L818.101 480.668L820.712 481.765L816.135 493.273L791.539 482.938L792.782 479.812L814.767 489.049Z" fill="#101820"/>
<path d="M805.282 458.816L812.869 463.403L817.558 455.211L820 456.688L815.311 464.88L823.125 469.605L828.368 460.446L830.81 461.922L823.888 474.017L801.16 460.274L808.083 448.179L810.525 449.656L805.282 458.816Z" fill="#101820"/>
<path d="M824.255 425.687L839.105 438.251C840.758 439.65 841.671 441.288 841.844 443.166C841.998 445.027 841.396 446.805 840.04 448.499C838.667 450.212 837.068 451.162 835.242 451.348C833.397 451.518 831.599 450.863 829.85 449.383L831.979 446.725C832.975 447.535 833.975 447.957 834.98 447.991C836.001 448.005 836.909 447.516 837.704 446.523C838.499 445.53 838.804 444.546 838.617 443.571C838.411 442.58 837.856 441.703 836.952 440.938L822.102 428.374L824.255 425.687Z" fill="#101820"/>
<path d="M859.716 418.737L851.082 426.292L853.194 432.154L850.468 434.54L841.069 408.292L844.051 405.682L867.736 419.429L865.009 421.815L859.716 418.737ZM857.209 417.249L845.222 410.229L850.052 423.512L857.209 417.249Z" fill="#101820"/>
<path d="M893.05 403.178L890.037 404.892L868.149 393.645L877.917 411.786L874.904 413.5L862.619 390.685L865.633 388.971L887.502 400.186L877.752 382.077L880.765 380.363L893.05 403.178Z" fill="#101820"/>
<path d="M903.511 370.973C906.291 370.087 908.846 369.828 911.175 370.195C913.521 370.531 915.512 371.458 917.145 372.975C918.804 374.485 920.012 376.499 920.772 379.017C921.532 381.536 921.643 383.9 921.107 386.109C920.588 388.286 919.453 390.196 917.703 391.837C915.97 393.447 913.714 394.695 910.934 395.581L902.997 398.11L895.574 373.502L903.511 370.973ZM910.135 392.933C913.427 391.884 915.687 390.248 916.914 388.025C918.134 385.779 918.286 383.138 917.37 380.101C916.448 377.042 914.849 374.932 912.575 373.774C910.325 372.607 907.567 372.544 904.299 373.586L899.691 375.054L905.527 394.401L910.135 392.933Z" fill="#101820"/>
<path d="M947.671 387.683L940.203 377.983L935.99 378.457L937.099 388.872L933.614 389.264L930.901 363.792L939.519 362.822C941.537 362.595 943.27 362.733 944.719 363.236C946.193 363.736 947.335 364.507 948.144 365.55C948.953 366.594 949.433 367.834 949.587 369.271C949.773 371.026 949.402 372.633 948.472 374.094C947.568 375.551 946.079 376.619 944.007 377.296L951.846 387.213L947.671 387.683ZM935.706 375.789L940.839 375.211C942.728 374.999 944.099 374.401 944.95 373.417C945.799 372.41 946.144 371.163 945.986 369.676C945.825 368.166 945.228 367.05 944.195 366.328C943.188 365.603 941.726 365.348 939.811 365.563L934.678 366.141L935.706 375.789Z" fill="#101820"/>
<path d="M973.45 388.13C970.968 387.894 968.754 387.129 966.806 385.836C964.86 384.518 963.376 382.814 962.351 380.723C961.355 378.61 960.969 376.309 961.194 373.82C961.418 371.332 962.208 369.155 963.564 367.291C964.947 365.405 966.711 364.011 968.857 363.108C971.005 362.181 973.32 361.836 975.802 362.072C978.309 362.311 980.536 363.09 982.481 364.407C984.429 365.7 985.902 367.391 986.901 369.479C987.899 371.568 988.285 373.869 988.058 376.382C987.832 378.895 987.041 381.084 985.685 382.948C984.33 384.812 982.578 386.207 980.43 387.135C978.284 388.037 975.958 388.369 973.45 388.13ZM973.711 385.239C975.579 385.417 977.292 385.162 978.851 384.474C980.435 383.788 981.719 382.717 982.702 381.261C983.711 379.806 984.307 378.067 984.489 376.042C984.674 373.992 984.4 372.169 983.667 370.574C982.961 368.956 981.904 367.662 980.495 366.691C979.086 365.72 977.434 365.144 975.541 364.963C973.648 364.783 971.922 365.037 970.363 365.725C968.804 366.413 967.52 367.484 966.512 368.938C965.531 370.37 964.948 372.111 964.763 374.161C964.58 376.186 964.842 378.007 965.547 379.625C966.278 381.245 967.348 382.54 968.758 383.512C970.192 384.485 971.843 385.061 973.711 385.239Z" fill="#101820"/>
<path d="M1032.16 385.394C1031.38 387.392 1030.03 388.766 1028.09 389.517C1026.19 390.254 1023.8 390.031 1020.92 388.849L1016.17 386.901L1012.28 396.926L1009.06 395.603L1018.38 371.591L1026.35 374.862C1029.14 376.006 1031 377.528 1031.93 379.428C1032.89 381.338 1032.96 383.327 1032.16 385.394ZM1021.92 386.265C1023.72 387.002 1025.19 387.166 1026.33 386.757C1027.48 386.348 1028.32 385.443 1028.87 384.042C1030.02 381.079 1028.85 378.88 1025.35 377.446L1020.6 375.498L1017.18 384.317L1021.92 386.265Z" fill="#101820"/>
<path d="M1043.25 413.553C1041.21 412.186 1039.65 410.466 1038.57 408.395C1037.5 406.303 1037.01 404.077 1037.1 401.717C1037.22 399.35 1037.96 397.098 1039.32 394.961C1040.68 392.823 1042.38 391.23 1044.42 390.181C1046.5 389.125 1048.68 388.69 1050.96 388.875C1053.26 389.039 1055.42 389.805 1057.46 391.172C1059.52 392.554 1061.09 394.291 1062.16 396.383C1063.24 398.454 1063.73 400.663 1063.62 403.009C1063.51 405.355 1062.77 407.607 1061.4 409.765C1060.03 411.924 1058.32 413.527 1056.27 414.576C1054.23 415.625 1052.06 416.068 1049.77 415.904C1047.48 415.719 1045.31 414.935 1043.25 413.553ZM1044.83 411.07C1046.37 412.099 1047.97 412.667 1049.64 412.772C1051.33 412.891 1052.95 412.524 1054.48 411.669C1056.03 410.828 1057.36 409.538 1058.46 407.798C1059.58 406.038 1060.19 404.269 1060.3 402.49C1060.45 400.704 1060.14 399.047 1059.37 397.516C1058.6 395.986 1057.44 394.699 1055.89 393.656C1054.33 392.612 1052.72 392.038 1051.05 391.933C1049.37 391.827 1047.76 392.195 1046.21 393.036C1044.69 393.87 1043.37 395.167 1042.25 396.927C1041.15 398.667 1040.53 400.429 1040.38 402.215C1040.26 404.014 1040.58 405.679 1041.35 407.21C1042.13 408.754 1043.3 410.041 1044.83 411.07Z" fill="#101820"/>
<path d="M1094.77 424.41L1069.55 436.003L1066.81 433.163L1078.3 407.342L1080.83 409.966L1070.72 432.02L1092.26 421.813L1094.77 424.41Z" fill="#101820"/>
<path d="M1102.77 439.944L1095.57 445.06L1100.85 452.918L1098.53 454.565L1093.25 446.706L1085.83 451.975L1091.73 460.762L1089.41 462.408L1081.62 450.806L1103.2 435.483L1111 447.085L1108.68 448.731L1102.77 439.944Z" fill="#101820"/>
<path d="M1121.77 467.553C1122.9 470.128 1123.38 472.584 1123.21 474.92C1123.07 477.269 1122.31 479.364 1120.92 481.206C1119.54 483.07 1117.62 484.577 1115.15 485.725C1112.67 486.874 1110.3 487.364 1108.03 487.195C1105.79 487.039 1103.76 486.237 1101.96 484.79C1100.19 483.356 1098.74 481.351 1097.6 478.776L1094.37 471.423L1118.53 460.201L1121.77 467.553ZM1100.2 477.568C1101.54 480.618 1103.39 482.563 1105.73 483.405C1108.1 484.236 1110.78 483.959 1113.76 482.574C1116.76 481.179 1118.75 479.276 1119.72 476.866C1120.71 474.479 1120.53 471.771 1119.2 468.745L1117.32 464.475L1098.33 473.299L1100.2 477.568Z" fill="#101820"/>
<path d="M1115.14 514.651L1112.72 503.727L1106.46 503.077L1105.7 499.627L1133.66 502.591L1134.5 506.364L1110.55 521.477L1109.79 518.027L1115.14 514.651ZM1117.71 513.067L1129.88 505.444L1115.69 504.01L1117.71 513.067Z" fill="#101820"/>
</svg>
