<svg width="1920" height="1080" viewBox="0 0 1920 1080" fill="none" xmlns="http://www.w3.org/2000/svg">
<rect width="1920" height="1080" fill="#FF844B"/>
<mask id="path-1-inside-1_7_563" fill="white">
<path fill-rule="evenodd" clip-rule="evenodd" d="M760 540H1160C1160 650.457 1070.46 740 960 740C849.543 740 760 650.457 760 540Z"/>
</mask>
<path fill-rule="evenodd" clip-rule="evenodd" d="M760 540H1160C1160 650.457 1070.46 740 960 740C849.543 740 760 650.457 760 540Z" fill="#101820"/>
<path d="M760 540H755V535H760V540ZM1160 540V535H1165V540H1160ZM760 535H1160V545H760V535ZM1165 540C1165 653.218 1073.22 745 960 745V735C1067.7 735 1155 647.696 1155 540H1165ZM960 745C846.782 745 755 653.218 755 540H765C765 647.696 852.304 735 960 735V745Z" fill="#101820" mask="url(#path-1-inside-1_7_563)"/>
<mask id="path-3-inside-2_7_563" fill="white">
<path fill-rule="evenodd" clip-rule="evenodd" d="M760 540H1160C1160 429.543 1070.46 340 960 340C849.543 340 760 429.543 760 540Z"/>
</mask>
<path fill-rule="evenodd" clip-rule="evenodd" d="M760 540H1160C1160 429.543 1070.46 340 960 340C849.543 340 760 429.543 760 540Z" fill="#FF844B"/>
<path d="M760 540H755V545H760V540ZM1160 540V545H1165V540H1160ZM760 545H1160V535H760V545ZM1165 540C1165 426.782 1073.22 335 960 335V345C1067.7 345 1155 432.304 1155 540H1165ZM960 335C846.782 335 755 426.782 755 540H765C765 432.304 852.304 345 960 345V335Z" fill="#101820" mask="url(#path-3-inside-2_7_563)"/>
<circle cx="960" cy="540" r="130" fill="#FF844B" stroke="#101820" stroke-width="5"/>
<circle cx="960" cy="540" r="125" fill="#101820"/>
<path d="M895.461 596.25L959.75 462.19L1024.04 596.25H895.461Z" stroke="#FF844B" stroke-width="30"/>
<path d="M937.84 572.737L913.171 623.461" stroke="#101820" stroke-width="26"/>
<path d="M815.485 575.188L812.586 575.934L809.761 563.1L800.552 565.468L802.846 575.887L799.946 576.633L797.653 566.213L785.348 569.377L784.5 565.523L811.812 558.5L815.485 575.188Z" fill="#FF844B"/>
<path d="M795.853 604.921L804.069 593.638L802.44 589.184L791.764 593.747L790.417 590.063L816.524 578.904L819.857 588.013C820.637 590.145 820.956 592.084 820.815 593.83C820.684 595.603 820.178 597.099 819.296 598.319C818.414 599.538 817.236 600.463 815.763 601.093C813.965 601.861 812.172 601.972 810.383 601.426C808.605 600.906 807.082 599.622 805.812 597.574L797.467 609.334L795.853 604.921ZM805.174 588.015L807.159 593.44C807.89 595.438 808.887 596.744 810.151 597.358C811.441 597.962 812.847 597.938 814.37 597.287C815.918 596.625 816.934 595.614 817.418 594.252C817.912 592.918 817.788 591.238 817.047 589.214L815.063 583.789L805.174 588.015Z" fill="#FF844B"/>
<path d="M807.436 629.467C806.072 627.069 805.342 624.538 805.247 621.876C805.175 619.199 805.735 616.664 806.927 614.271C808.156 611.887 809.937 609.92 812.271 608.37C814.605 606.82 817.021 605.998 819.521 605.905C822.058 605.821 824.403 606.426 826.558 607.72C828.735 608.999 830.505 610.838 831.869 613.237C833.247 615.66 833.972 618.211 834.045 620.888C834.14 623.55 833.584 626.065 832.378 628.434C831.172 630.802 829.39 632.769 827.034 634.335C824.677 635.9 822.249 636.729 819.749 636.823C817.25 636.916 814.911 636.323 812.734 635.044C810.58 633.75 808.814 631.891 807.436 629.467ZM810.147 627.667C811.173 629.472 812.483 630.833 814.076 631.751C815.684 632.693 817.44 633.093 819.345 632.952C821.265 632.835 823.174 632.146 825.072 630.885C826.994 629.608 828.425 628.079 829.366 626.296C830.343 624.522 830.813 622.66 830.775 620.709C830.738 618.758 830.199 616.868 829.158 615.038C828.118 613.208 826.801 611.834 825.208 610.917C823.614 609.999 821.858 609.599 819.939 609.715C818.056 609.842 816.154 610.543 814.232 611.819C812.333 613.081 810.895 614.598 809.918 616.372C808.955 618.17 808.492 620.044 808.53 621.995C808.581 623.971 809.12 625.861 810.147 627.667Z" fill="#FF844B"/>
<path d="M834.813 666.571L832.349 663.637L838.996 635.598L822.442 651.837L819.978 648.904L840.797 628.48L843.261 631.414L836.644 659.423L853.168 643.214L855.632 646.147L834.813 666.571Z" fill="#FF844B"/>
<path d="M872.919 661.402L871.057 663.917L865.082 658.748L849.4 679.923L846.538 677.447L862.221 656.272L856.215 651.075L858.077 648.56L872.919 661.402Z" fill="#FF844B"/>
<path d="M887.992 674.839L883.821 683.926L892.986 688.841L891.644 691.766L882.479 686.851L878.182 696.212L888.43 701.707L887.087 704.632L873.556 697.376L886.051 670.153L899.582 677.409L898.24 680.334L887.992 674.839Z" fill="#FF844B"/>
<path d="M916.298 715.663L912.801 714.474L905.443 686.644L898.738 709.695L895.241 708.507L903.674 679.517L907.171 680.705L914.541 708.494L921.234 685.485L924.731 686.673L916.298 715.663Z" fill="#FF844B"/>
<path d="M937.848 689.013C940.884 689.433 943.435 690.415 945.499 691.958C947.593 693.477 949.091 695.455 949.994 697.891C950.923 700.331 951.206 703.092 950.841 706.172C950.476 709.253 949.56 711.847 948.092 713.956C946.654 716.04 944.745 717.531 942.364 718.431C940.014 719.305 937.32 719.533 934.284 719.113L925.614 717.913L929.178 687.813L937.848 689.013ZM934.667 715.874C938.263 716.371 941.128 715.729 943.261 713.946C945.397 712.135 946.686 709.372 947.125 705.658C947.568 701.916 946.956 698.861 945.287 696.494C943.644 694.131 941.039 692.702 937.469 692.208L932.435 691.512L929.633 715.177L934.667 715.874Z" fill="#FF844B"/>
<path d="M975.921 689.701C978.957 689.281 981.654 689.537 984.012 690.469C986.392 691.369 988.303 692.875 989.744 694.987C991.212 697.095 992.129 699.69 992.493 702.771C992.858 705.851 992.576 708.611 991.647 711.052C990.74 713.459 989.24 715.423 987.146 716.941C985.075 718.428 982.521 719.381 979.485 719.801L970.815 721L967.251 690.9L975.921 689.701ZM979.101 716.562C982.697 716.064 985.32 714.663 986.969 712.357C988.615 710.023 989.217 706.998 988.778 703.285C988.335 699.542 987.03 696.752 984.863 694.916C982.723 693.076 979.869 692.403 976.299 692.896L971.265 693.593L974.067 717.258L979.101 716.562Z" fill="#FF844B"/>
<path d="M998.45 688.455L1001.07 698.195L1010.9 695.106L1011.74 698.241L1001.92 701.331L1004.62 711.363L1015.6 707.909L1016.45 711.044L1001.94 715.606L994.086 686.427L1008.59 681.865L1009.43 685L998.45 688.455Z" fill="#FF844B"/>
<path d="M1034.02 669.801L1036.28 702.143L1032.45 704.074L1010.98 681.408L1014.53 679.624L1032.75 699.311L1030.52 671.567L1034.02 669.801Z" fill="#FF844B"/>
<path d="M1041.2 668.298L1046.42 676.732L1054.92 670.586L1056.6 673.301L1048.1 679.446L1053.47 688.133L1062.98 681.262L1064.66 683.976L1052.1 693.05L1036.47 667.785L1049.03 658.712L1050.71 661.427L1041.2 668.298Z" fill="#FF844B"/>
<path d="M1072.42 673.063L1079.85 666.109L1081.8 668.545L1071.6 678.092L1053.22 655.152L1055.99 652.559L1072.42 673.063Z" fill="#FF844B"/>
<path d="M1095.43 653.162C1093.75 655.31 1091.75 656.848 1089.44 657.776C1087.11 658.685 1084.7 658.901 1082.23 658.423C1079.75 657.903 1077.47 656.687 1075.38 654.774C1073.29 652.861 1071.81 650.635 1070.95 648.097C1070.08 645.518 1069.88 642.92 1070.35 640.304C1070.8 637.669 1071.86 635.277 1073.54 633.129C1075.24 630.958 1077.26 629.418 1079.59 628.509C1081.9 627.581 1084.29 627.368 1086.74 627.868C1089.2 628.369 1091.49 629.585 1093.6 631.517C1095.71 633.449 1097.19 635.684 1098.06 638.222C1098.92 640.76 1099.13 643.347 1098.68 645.982C1098.21 648.598 1097.13 650.991 1095.43 653.162ZM1093 650.939C1094.27 649.322 1095.06 647.552 1095.37 645.63C1095.69 643.685 1095.5 641.757 1094.78 639.844C1094.08 637.909 1092.88 636.164 1091.18 634.607C1089.46 633.031 1087.66 632.038 1085.8 631.628C1083.94 631.178 1082.16 631.276 1080.45 631.923C1078.75 632.57 1077.26 633.713 1075.97 635.352C1074.69 636.991 1073.89 638.772 1073.58 640.694C1073.27 642.616 1073.47 644.545 1074.17 646.48C1074.87 648.374 1076.08 650.108 1077.8 651.684C1079.5 653.241 1081.28 654.245 1083.14 654.695C1085.02 655.124 1086.82 655.015 1088.52 654.368C1090.24 653.699 1091.73 652.556 1093 650.939Z" fill="#FF844B"/>
<path d="M1100.85 605.806C1102.86 607.085 1104.13 608.901 1104.66 611.255C1105.18 613.57 1104.61 616.254 1102.95 619.307L1100.22 624.338L1110.32 630.754L1108.47 634.17L1084.26 618.802L1088.85 610.356C1090.45 607.402 1092.33 605.581 1094.48 604.892C1096.64 604.179 1098.76 604.483 1100.85 605.806ZM1100.34 617.654C1101.38 615.751 1101.76 614.107 1101.48 612.721C1101.21 611.335 1100.36 610.194 1098.95 609.297C1095.96 607.401 1093.46 608.305 1091.45 612.009L1088.72 617.04L1097.61 622.684L1100.34 617.654Z" fill="#FF844B"/>
<path d="M1099.41 595.15L1108.1 599.001L1111.98 588.771L1114.78 590.011L1110.89 600.241L1119.83 604.208L1124.18 592.769L1126.97 594.009L1121.24 609.113L1095.23 597.575L1100.96 582.471L1103.76 583.711L1099.41 595.15Z" fill="#FF844B"/>
<path d="M1133.44 569.436L1120.68 573.438L1119.6 578.084L1130.74 581.094L1129.85 584.937L1102.61 577.577L1104.81 568.073C1105.33 565.849 1106.11 564.071 1107.17 562.741C1108.23 561.382 1109.45 560.485 1110.82 560.048C1112.19 559.612 1113.65 559.601 1115.19 560.017C1117.06 560.524 1118.58 561.562 1119.74 563.132C1120.9 564.674 1121.45 566.676 1121.38 569.14L1134.5 564.832L1133.44 569.436ZM1116.75 577.313L1118.06 571.653C1118.54 569.57 1118.43 567.88 1117.74 566.585C1117.01 565.282 1115.86 564.417 1114.27 563.987C1112.65 563.551 1111.28 563.734 1110.16 564.536C1109.04 565.31 1108.23 566.754 1107.74 568.865L1106.43 574.525L1116.75 577.313Z" fill="#FF844B"/>
<path d="M806.277 506.75L803.849 517.675L809.206 521.05L808.44 524.5L784.5 509.352L785.339 505.578L813.295 502.65L812.529 506.1L806.277 506.75ZM803.298 507.034L789.11 508.467L801.285 516.09L803.298 507.034Z" fill="#101820"/>
<path d="M814.767 489.049L818.101 480.668L820.712 481.765L816.135 493.273L791.539 482.938L792.782 479.812L814.767 489.049Z" fill="#101820"/>
<path d="M805.282 458.816L812.869 463.403L817.558 455.211L820 456.688L815.311 464.88L823.125 469.605L828.368 460.446L830.81 461.922L823.888 474.017L801.16 460.274L808.083 448.179L810.525 449.656L805.282 458.816Z" fill="#101820"/>
<path d="M824.255 425.687L839.105 438.251C840.758 439.65 841.671 441.288 841.844 443.166C841.998 445.027 841.396 446.805 840.04 448.499C838.667 450.212 837.068 451.162 835.242 451.348C833.397 451.518 831.599 450.863 829.85 449.383L831.979 446.725C832.975 447.535 833.975 447.957 834.98 447.991C836.001 448.005 836.909 447.516 837.704 446.523C838.499 445.53 838.804 444.546 838.617 443.571C838.411 442.58 837.856 441.703 836.952 440.938L822.102 428.374L824.255 425.687Z" fill="#101820"/>
<path d="M859.716 418.737L851.082 426.292L853.194 432.154L850.468 434.54L841.069 408.292L844.051 405.682L867.736 419.429L865.009 421.815L859.716 418.737ZM857.209 417.249L845.222 410.229L850.052 423.512L857.209 417.249Z" fill="#101820"/>
<path d="M893.05 403.178L890.037 404.892L868.149 393.645L877.917 411.786L874.904 413.5L862.619 390.685L865.633 388.971L887.502 400.186L877.752 382.077L880.765 380.363L893.05 403.178Z" fill="#101820"/>
<path d="M903.511 370.973C906.291 370.087 908.846 369.828 911.175 370.195C913.521 370.531 915.512 371.458 917.145 372.975C918.804 374.485 920.012 376.499 920.772 379.017C921.532 381.536 921.643 383.9 921.107 386.109C920.588 388.286 919.453 390.196 917.703 391.837C915.97 393.447 913.714 394.695 910.934 395.581L902.997 398.11L895.574 373.502L903.511 370.973ZM910.135 392.933C913.427 391.884 915.687 390.248 916.914 388.025C918.134 385.779 918.286 383.138 917.37 380.101C916.448 377.042 914.849 374.932 912.575 373.774C910.325 372.607 907.567 372.544 904.299 373.586L899.691 375.054L905.527 394.401L910.135 392.933Z" fill="#101820"/>
<path d="M947.671 387.683L940.203 377.983L935.99 378.457L937.099 388.872L933.614 389.264L930.901 363.792L939.519 362.822C941.537 362.595 943.27 362.733 944.719 363.236C946.193 363.736 947.335 364.507 948.144 365.55C948.953 366.594 949.433 367.834 949.587 369.271C949.773 371.026 949.402 372.633 948.472 374.094C947.568 375.551 946.079 376.619 944.007 377.296L951.846 387.213L947.671 387.683ZM935.706 375.789L940.839 375.211C942.728 374.999 944.099 374.401 944.95 373.417C945.799 372.41 946.144 371.163 945.986 369.676C945.825 368.166 945.228 367.05 944.195 366.328C943.188 365.603 941.726 365.348 939.811 365.563L934.678 366.141L935.706 375.789Z" fill="#101820"/>
<path d="M973.45 388.13C970.968 387.894 968.754 387.129 966.806 385.836C964.86 384.518 963.376 382.814 962.351 380.723C961.355 378.61 960.969 376.309 961.194 373.82C961.418 371.332 962.208 369.155 963.564 367.291C964.947 365.405 966.711 364.011 968.857 363.108C971.005 362.181 973.32 361.836 975.802 362.072C978.309 362.311 980.536 363.09 982.481 364.407C984.429 365.7 985.902 367.391 986.901 369.479C987.899 371.568 988.285 373.869 988.058 376.382C987.832 378.895 987.041 381.084 985.685 382.948C984.33 384.812 982.578 386.207 980.43 387.135C978.284 388.037 975.958 388.369 973.45 388.13ZM973.711 385.239C975.579 385.417 977.292 385.162 978.851 384.474C980.435 383.788 981.719 382.717 982.702 381.261C983.711 379.806 984.307 378.067 984.489 376.042C984.674 373.992 984.4 372.169 983.667 370.574C982.961 368.956 981.904 367.662 980.495 366.691C979.086 365.72 977.434 365.144 975.541 364.963C973.648 364.783 971.922 365.037 970.363 365.725C968.804 366.413 967.52 367.484 966.512 368.938C965.531 370.37 964.948 372.111 964.763 374.161C964.58 376.186 964.842 378.007 965.547 379.625C966.278 381.245 967.348 382.54 968.758 383.512C970.192 384.485 971.843 385.061 973.711 385.239Z" fill="#101820"/>
<path d="M1032.16 385.394C1031.38 387.392 1030.03 388.766 1028.09 389.517C1026.19 390.254 1023.8 390.031 1020.92 388.849L1016.17 386.901L1012.28 396.926L1009.06 395.603L1018.38 371.591L1026.35 374.862C1029.14 376.006 1031 377.528 1031.93 379.428C1032.89 381.338 1032.96 383.327 1032.16 385.394ZM1021.92 386.265C1023.72 387.002 1025.19 387.166 1026.33 386.757C1027.48 386.348 1028.32 385.443 1028.87 384.042C1030.02 381.079 1028.85 378.88 1025.35 377.446L1020.6 375.498L1017.18 384.317L1021.92 386.265Z" fill="#101820"/>
<path d="M1043.25 413.553C1041.21 412.186 1039.65 410.466 1038.57 408.395C1037.5 406.303 1037.01 404.077 1037.1 401.717C1037.22 399.35 1037.96 397.098 1039.32 394.961C1040.68 392.823 1042.38 391.23 1044.42 390.181C1046.5 389.125 1048.68 388.69 1050.96 388.875C1053.26 389.039 1055.42 389.805 1057.46 391.172C1059.52 392.554 1061.09 394.291 1062.16 396.383C1063.24 398.454 1063.73 400.663 1063.62 403.009C1063.51 405.355 1062.77 407.607 1061.4 409.765C1060.03 411.924 1058.32 413.527 1056.27 414.576C1054.23 415.625 1052.06 416.068 1049.77 415.904C1047.48 415.719 1045.31 414.935 1043.25 413.553ZM1044.83 411.07C1046.37 412.099 1047.97 412.667 1049.64 412.772C1051.33 412.891 1052.95 412.524 1054.48 411.669C1056.03 410.828 1057.36 409.538 1058.46 407.798C1059.58 406.038 1060.19 404.269 1060.3 402.49C1060.45 400.704 1060.14 399.047 1059.37 397.516C1058.6 395.986 1057.44 394.699 1055.89 393.656C1054.33 392.612 1052.72 392.038 1051.05 391.933C1049.37 391.827 1047.76 392.195 1046.21 393.036C1044.69 393.87 1043.37 395.167 1042.25 396.927C1041.15 398.667 1040.53 400.429 1040.38 402.215C1040.26 404.014 1040.58 405.679 1041.35 407.21C1042.13 408.754 1043.3 410.041 1044.83 411.07Z" fill="#101820"/>
<path d="M1094.77 424.41L1069.55 436.003L1066.81 433.163L1078.3 407.342L1080.83 409.966L1070.72 432.02L1092.26 421.813L1094.77 424.41Z" fill="#101820"/>
<path d="M1102.77 439.944L1095.57 445.06L1100.85 452.918L1098.53 454.565L1093.25 446.706L1085.83 451.975L1091.73 460.762L1089.41 462.408L1081.62 450.806L1103.2 435.483L1111 447.085L1108.68 448.731L1102.77 439.944Z" fill="#101820"/>
<path d="M1121.77 467.553C1122.9 470.128 1123.38 472.584 1123.21 474.92C1123.07 477.269 1122.31 479.364 1120.92 481.206C1119.54 483.07 1117.62 484.577 1115.15 485.725C1112.67 486.874 1110.3 487.364 1108.03 487.195C1105.79 487.039 1103.76 486.237 1101.96 484.79C1100.19 483.356 1098.74 481.351 1097.6 478.776L1094.37 471.423L1118.53 460.201L1121.77 467.553ZM1100.2 477.568C1101.54 480.618 1103.39 482.563 1105.73 483.405C1108.1 484.236 1110.78 483.959 1113.76 482.574C1116.76 481.179 1118.75 479.276 1119.72 476.866C1120.71 474.479 1120.53 471.771 1119.2 468.745L1117.32 464.475L1098.33 473.299L1100.2 477.568Z" fill="#101820"/>
<path d="M1115.14 514.651L1112.72 503.727L1106.46 503.077L1105.7 499.627L1133.66 502.591L1134.5 506.364L1110.55 521.477L1109.79 518.027L1115.14 514.651ZM1117.71 513.067L1129.88 505.444L1115.69 504.01L1117.71 513.067Z" fill="#101820"/>
</svg>
