<svg id="visual" viewBox="0 0 960 540" width="960" height="540" xmlns="http://www.w3.org/2000/svg" xmlns:xlink="http://www.w3.org/1999/xlink" version="1.1"><rect x="0" y="0" width="960" height="540" fill="#FF844B"></rect><path d="M0 121L17.8 133.8C35.7 146.7 71.3 172.3 106.8 175.8C142.3 179.3 177.7 160.7 213.2 148.2C248.7 135.7 284.3 129.3 320 127.2C355.7 125 391.3 127 426.8 133.8C462.3 140.7 497.7 152.3 533.2 146.3C568.7 140.3 604.3 116.7 640 104C675.7 91.3 711.3 89.7 746.8 90.2C782.3 90.7 817.7 93.3 853.2 113C888.7 132.7 924.3 169.3 942.2 187.7L960 206L960 541L942.2 541C924.3 541 888.7 541 853.2 541C817.7 541 782.3 541 746.8 541C711.3 541 675.7 541 640 541C604.3 541 568.7 541 533.2 541C497.7 541 462.3 541 426.8 541C391.3 541 355.7 541 320 541C284.3 541 248.7 541 213.2 541C177.7 541 142.3 541 106.8 541C71.3 541 35.7 541 17.8 541L0 541Z" fill="#ff6d2a"></path><path d="M0 169L17.8 177.5C35.7 186 71.3 203 106.8 202.7C142.3 202.3 177.7 184.7 213.2 177.2C248.7 169.7 284.3 172.3 320 190.7C355.7 209 391.3 243 426.8 252.2C462.3 261.3 497.7 245.7 533.2 235.3C568.7 225 604.3 220 640 226.7C675.7 233.3 711.3 251.7 746.8 249.2C782.3 246.7 817.7 223.3 853.2 215.3C888.7 207.3 924.3 214.7 942.2 218.3L960 222L960 541L942.2 541C924.3 541 888.7 541 853.2 541C817.7 541 782.3 541 746.8 541C711.3 541 675.7 541 640 541C604.3 541 568.7 541 533.2 541C497.7 541 462.3 541 426.8 541C391.3 541 355.7 541 320 541C284.3 541 248.7 541 213.2 541C177.7 541 142.3 541 106.8 541C71.3 541 35.7 541 17.8 541L0 541Z" fill="#ff6823"></path><path d="M0 360L17.8 354.3C35.7 348.7 71.3 337.3 106.8 337.3C142.3 337.3 177.7 348.7 213.2 338.7C248.7 328.7 284.3 297.3 320 296.8C355.7 296.3 391.3 326.7 426.8 333C462.3 339.3 497.7 321.7 533.2 317C568.7 312.3 604.3 320.7 640 327.7C675.7 334.7 711.3 340.3 746.8 325.2C782.3 310 817.7 274 853.2 269.3C888.7 264.7 924.3 291.3 942.2 304.7L960 318L960 541L942.2 541C924.3 541 888.7 541 853.2 541C817.7 541 782.3 541 746.8 541C711.3 541 675.7 541 640 541C604.3 541 568.7 541 533.2 541C497.7 541 462.3 541 426.8 541C391.3 541 355.7 541 320 541C284.3 541 248.7 541 213.2 541C177.7 541 142.3 541 106.8 541C71.3 541 35.7 541 17.8 541L0 541Z" fill="#ff621c"></path><path d="M0 333L17.8 344C35.7 355 71.3 377 106.8 379.2C142.3 381.3 177.7 363.7 213.2 363.3C248.7 363 284.3 380 320 381.8C355.7 383.7 391.3 370.3 426.8 375.8C462.3 381.3 497.7 405.7 533.2 410.5C568.7 415.3 604.3 400.7 640 392.7C675.7 384.7 711.3 383.3 746.8 383.3C782.3 383.3 817.7 384.7 853.2 375C888.7 365.3 924.3 344.7 942.2 334.3L960 324L960 541L942.2 541C924.3 541 888.7 541 853.2 541C817.7 541 782.3 541 746.8 541C711.3 541 675.7 541 640 541C604.3 541 568.7 541 533.2 541C497.7 541 462.3 541 426.8 541C391.3 541 355.7 541 320 541C284.3 541 248.7 541 213.2 541C177.7 541 142.3 541 106.8 541C71.3 541 35.7 541 17.8 541L0 541Z" fill="#ff5d14"></path><path d="M0 538L17.8 529C35.7 520 71.3 502 106.8 484.8C142.3 467.7 177.7 451.3 213.2 454.3C248.7 457.3 284.3 479.7 320 470.5C355.7 461.3 391.3 420.7 426.8 423.8C462.3 427 497.7 474 533.2 496C568.7 518 604.3 515 640 501C675.7 487 711.3 462 746.8 441.8C782.3 421.7 817.7 406.3 853.2 415.2C888.7 424 924.3 457 942.2 473.5L960 490L960 541L942.2 541C924.3 541 888.7 541 853.2 541C817.7 541 782.3 541 746.8 541C711.3 541 675.7 541 640 541C604.3 541 568.7 541 533.2 541C497.7 541 462.3 541 426.8 541C391.3 541 355.7 541 320 541C284.3 541 248.7 541 213.2 541C177.7 541 142.3 541 106.8 541C71.3 541 35.7 541 17.8 541L0 541Z" fill="#ff5709"></path></svg>