<svg width="1000" height="1000" viewBox="0 0 1000 1000" fill="none" xmlns="http://www.w3.org/2000/svg">
<rect width="1000" height="1000" fill="#FE5000"/>
<mask id="path-1-inside-1_4_488" fill="white">
<path fill-rule="evenodd" clip-rule="evenodd" d="M100 500H900C900 720.914 720.914 900 500 900C279.086 900 100 720.914 100 500Z"/>
</mask>
<path fill-rule="evenodd" clip-rule="evenodd" d="M100 500H900C900 720.914 720.914 900 500 900C279.086 900 100 720.914 100 500Z" fill="#101820"/>
<path d="M100 500H95V495H100V500ZM900 500V495H905V500H900ZM100 495H900V505H100V495ZM905 500C905 723.675 723.675 905 500 905V895C718.152 895 895 718.152 895 500H905ZM500 905C276.325 905 95 723.675 95 500H105C105 718.152 281.848 895 500 895V905Z" fill="#101820" mask="url(#path-1-inside-1_4_488)"/>
<mask id="path-3-inside-2_4_488" fill="white">
<path fill-rule="evenodd" clip-rule="evenodd" d="M100 500H900C900 279.086 720.914 100 500 100C279.086 100 100 279.086 100 500Z"/>
</mask>
<path fill-rule="evenodd" clip-rule="evenodd" d="M100 500H900C900 279.086 720.914 100 500 100C279.086 100 100 279.086 100 500Z" fill="#FE5000"/>
<path d="M100 500H95V505H100V500ZM900 500V505H905V500H900ZM100 505H900V495H100V505ZM905 500C905 276.325 723.675 95 500 95V105C718.152 105 895 281.848 895 500H905ZM500 95C276.325 95 95 276.325 95 500H105C105 281.848 281.848 105 500 105V95Z" fill="#101820" mask="url(#path-3-inside-2_4_488)"/>
<circle cx="500" cy="500" r="262.5" fill="#FE5000" stroke="#101820" stroke-width="5"/>
<circle cx="500" cy="500" r="250" fill="#101820"/>
<path d="M374.893 610L499.5 350.161L624.107 610H374.893Z" stroke="#FE5000" stroke-width="65"/>
<path d="M451.674 565.474L402.336 666.923" stroke="#101820" stroke-width="35"/>
<path d="M167.852 571.551L163.648 547.032L150.328 544.743L149 537L208.577 547.364L210.029 555.833L157.409 586.038L156.081 578.295L167.852 571.551ZM173.482 568.39L200.231 553.168L169.997 548.065L173.482 568.39Z" fill="#FE5000"/>
<path d="M172.588 616.706L179.195 635.557L173.479 637.632L164.409 611.75L218.246 592.21L220.71 599.24L172.588 616.706Z" fill="#FE5000"/>
<path d="M229.979 639.455L213.178 648.614L222.869 667.024L217.461 669.972L207.77 651.563L190.464 660.998L201.3 681.581L195.892 684.53L181.584 657.351L231.915 629.911L246.223 657.09L240.815 660.038L229.979 639.455Z" fill="#FE5000"/>
<path d="M272.054 695.031L238.75 721.053C235.042 723.95 231.195 725.118 227.209 724.558C223.266 723.964 219.863 721.769 217 717.974C214.104 714.136 212.905 710.184 213.402 706.121C213.943 702.024 216.175 698.442 220.098 695.377L224.59 701.331C222.424 703.093 221.063 705.058 220.506 707.226C219.982 709.438 220.56 711.657 222.238 713.881C223.916 716.106 225.814 717.258 227.93 717.338C230.089 717.385 232.182 716.616 234.208 715.033L267.512 689.011L272.054 695.031Z" fill="#FE5000"/>
<path d="M278.94 766.214L260.543 749.376L248.738 755.797L242.928 750.48L295.807 721.86L302.161 727.676L279.722 784.156L273.913 778.839L278.94 766.214ZM281.384 760.227L292.872 731.621L266.134 746.269L281.384 760.227Z" fill="#FE5000"/>
<path d="M338.222 822.585L331.784 818.791L328.377 764.017L305.892 803.532L299.454 799.738L327.733 750.042L334.171 753.836L337.618 808.538L360.063 769.095L366.501 772.889L338.222 822.585Z" fill="#FE5000"/>
<path d="M399.024 787.15C404.957 789.099 409.73 791.901 413.341 795.557C417.02 799.178 419.353 803.419 420.34 808.28C421.379 813.159 421.016 818.382 419.251 823.947C417.485 829.513 414.78 833.966 411.134 837.306C407.557 840.612 403.236 842.639 398.171 843.387C393.174 844.101 387.709 843.483 381.775 841.534L364.833 835.97L382.081 781.585L399.024 787.15ZM383.631 835.682C390.658 837.99 396.605 837.905 401.472 835.425C406.356 832.894 409.861 828.273 411.99 821.563C414.134 814.8 413.935 808.905 411.392 803.877C408.9 798.866 404.167 795.215 397.192 792.924L387.355 789.692L373.794 832.451L383.631 835.682Z" fill="#FE5000"/>
<path d="M466.411 860.589L455.443 835.844L446.46 834.805L443.87 857.981L436.438 857.121L442.771 800.441L461.147 802.567C465.448 803.065 468.987 804.216 471.763 806.02C474.594 807.83 476.605 810.067 477.797 812.731C478.988 815.395 479.405 818.326 479.048 821.525C478.612 825.428 477.084 828.738 474.464 831.455C471.898 834.179 468.302 835.767 463.674 836.22L475.313 861.619L466.411 860.589ZM447.123 828.868L458.067 830.135C462.096 830.601 465.226 829.975 467.459 828.256C469.697 826.483 471.001 823.943 471.371 820.636C471.747 817.275 471.03 814.556 469.221 812.48C467.467 810.41 464.549 809.139 460.465 808.666L449.522 807.4L447.123 828.868Z" fill="#FE5000"/>
<path d="M526.475 861.841C521.184 862.36 516.241 861.611 511.645 859.595C507.045 857.525 503.255 854.416 500.274 850.269C497.344 846.062 495.616 841.188 495.091 835.649C494.567 830.11 495.351 825.018 497.444 820.373C499.586 815.668 502.723 811.88 506.856 809.008C510.983 806.082 515.692 804.36 520.983 803.841C526.329 803.317 531.302 804.09 535.903 806.16C540.498 808.176 544.258 811.26 547.184 815.413C550.11 819.566 551.838 824.439 552.367 830.033C552.897 835.626 552.115 840.746 550.023 845.39C547.93 850.035 544.82 853.821 540.692 856.747C536.56 859.619 531.821 861.316 526.475 861.841ZM525.866 855.405C529.848 855.015 533.333 853.741 536.322 851.585C539.366 849.423 541.626 846.543 543.102 842.945C544.633 839.342 545.184 835.286 544.758 830.779C544.326 826.217 543.023 822.344 540.85 819.159C538.726 815.914 535.994 813.523 532.656 811.987C529.317 810.451 525.629 809.881 521.593 810.276C517.556 810.672 514.043 811.949 511.054 814.105C508.065 816.262 505.806 819.142 504.275 822.745C502.794 826.289 502.269 830.341 502.701 834.903C503.128 839.41 504.403 843.287 506.527 846.531C508.706 849.771 511.464 852.159 514.803 853.695C518.196 855.226 521.884 855.796 525.866 855.405Z" fill="#FE5000"/>
<path d="M632.999 791.942C634.797 796.337 634.782 800.641 632.955 804.853C631.158 808.994 627.183 812.367 621.031 814.974L610.894 819.27L619.916 841.322L613.032 844.239L591.422 791.42L608.443 784.208C614.393 781.686 619.496 781.213 623.751 782.79C628.056 784.344 631.138 787.395 632.999 791.942ZM618.705 809.291C622.538 807.667 625.021 805.637 626.154 803.2C627.288 800.764 627.224 798.005 625.963 794.923C623.297 788.406 618.232 786.729 610.768 789.891L600.631 794.186L608.568 813.586L618.705 809.291Z" fill="#FE5000"/>
<path d="M691.877 805.363C687.522 808.397 682.862 810.146 677.898 810.61C672.903 811.027 668.115 810.136 663.535 807.935C658.969 805.658 655.13 802.207 652.02 797.584C648.909 792.961 647.152 788.094 646.747 782.983C646.357 777.796 647.271 772.931 649.491 768.389C651.68 763.801 654.953 759.99 659.308 756.955C663.708 753.889 668.406 752.147 673.4 751.729C678.365 751.266 683.115 752.15 687.65 754.382C692.186 756.615 696.024 760.065 699.165 764.733C702.306 769.402 704.079 774.292 704.484 779.402C704.889 784.513 703.996 789.362 701.807 793.95C699.587 798.492 696.277 802.297 691.877 805.363ZM688.263 799.991C691.541 797.708 693.964 794.888 695.531 791.532C697.143 788.145 697.73 784.508 697.29 780.62C696.896 776.701 695.433 772.86 692.902 769.098C690.34 765.291 687.35 762.514 683.933 760.767C680.53 758.944 677.008 758.169 673.367 758.443C669.726 758.716 666.244 760.011 662.922 762.326C659.599 764.641 657.154 767.477 655.587 770.832C654.019 774.188 653.433 777.825 653.827 781.745C654.236 785.587 655.722 789.412 658.283 793.22C660.815 796.982 663.782 799.774 667.184 801.597C670.632 803.389 674.177 804.148 677.818 803.875C681.504 803.57 684.986 802.275 688.263 799.991Z" fill="#FE5000"/>
<path d="M727.32 696.899L754.202 752.166L748.383 758.512L692.349 735.036L697.725 729.174L745.61 749.886L721.999 702.702L727.32 696.899Z" fill="#FE5000"/>
<path d="M745.97 681.745L762.021 692.153L773.065 674.514L778.231 677.864L767.187 695.503L783.72 706.223L796.068 686.501L801.235 689.851L784.93 715.893L736.847 684.715L753.152 658.673L758.319 662.023L745.97 681.745Z" fill="#FE5000"/>
<path d="M768.368 629.303C770.643 623.511 773.7 618.951 777.538 615.622C781.345 612.222 785.692 610.219 790.578 609.615C795.485 608.959 800.652 609.736 806.081 611.945C811.51 614.153 815.779 617.216 818.889 621.133C821.969 624.978 823.735 629.468 824.19 634.603C824.613 639.666 823.688 645.093 821.413 650.884L814.916 667.421L761.872 645.839L768.368 629.303ZM815.705 648.562C818.399 641.704 818.654 635.738 816.468 630.666C814.232 625.572 809.842 621.694 803.297 619.032C796.701 616.348 790.833 616.082 785.692 618.233C780.571 620.333 776.674 624.787 774 631.594L770.227 641.196L811.933 658.164L815.705 648.562Z" fill="#FE5000"/>
<path d="M834.352 560.676L830.148 585.196L841.919 591.94L840.591 599.683L787.985 569.397L789.437 560.928L849 550.645L847.672 558.388L834.352 560.676ZM828.003 561.71L797.769 566.813L824.518 582.035L828.003 561.71Z" fill="#FE5000"/>
<path d="M192.553 433.5L187.698 455.35L198.413 462.1L196.88 469L149 438.703L150.677 431.156L206.59 425.3L205.057 432.2L192.553 433.5ZM186.596 434.068L158.219 436.935L182.571 452.18L186.596 434.068Z" fill="#101820"/>
<path d="M209.534 398.099L216.202 381.335L221.424 383.53L212.27 406.545L163.078 385.876L165.565 379.624L209.534 398.099Z" fill="#101820"/>
<path d="M190.564 337.631L205.737 346.806L215.116 330.422L220 333.376L210.621 349.76L226.251 359.211L236.737 340.891L241.621 343.845L227.775 368.034L182.32 340.548L196.165 316.359L201.05 319.312L190.564 337.631Z" fill="#101820"/>
<path d="M228.509 271.374L258.209 296.502C261.515 299.3 263.342 302.576 263.688 306.331C263.996 310.054 262.793 313.61 260.079 316.998C257.335 320.425 254.136 322.324 250.484 322.697C246.793 323.037 243.199 321.727 239.7 318.767L243.957 313.451C245.949 315.071 247.95 315.915 249.96 315.982C252.002 316.01 253.818 315.032 255.408 313.046C256.999 311.059 257.607 309.092 257.234 307.142C256.822 305.16 255.712 303.405 253.905 301.876L224.205 276.748L228.509 271.374Z" fill="#101820"/>
<path d="M299.431 257.473L282.164 272.585L286.389 284.308L280.936 289.08L262.138 236.584L268.102 231.364L315.471 258.858L310.018 263.63L299.431 257.473ZM294.419 254.498L270.443 240.459L280.105 267.024L294.419 254.498Z" fill="#101820"/>
<path d="M366.1 226.357L360.073 229.785L316.299 207.291L335.834 243.572L329.808 247L305.239 201.37L311.265 197.942L355.005 220.371L335.504 184.155L341.531 180.727L366.1 226.357Z" fill="#101820"/>
<path d="M387.023 161.946C392.582 160.174 397.691 159.656 402.35 160.39C407.043 161.062 411.023 162.915 414.291 165.95C417.607 168.97 420.025 172.998 421.544 178.035C423.064 183.072 423.287 187.799 422.214 192.217C421.176 196.573 418.906 200.392 415.406 203.674C411.941 206.894 407.428 209.39 401.868 211.162L385.994 216.22L371.148 167.004L387.023 161.946ZM400.271 205.866C406.855 203.768 411.374 200.496 413.828 196.05C416.268 191.558 416.573 186.275 414.741 180.203C412.895 174.083 409.698 169.865 405.15 167.547C400.651 165.214 395.134 165.089 388.599 167.171L379.381 170.108L391.053 208.803L400.271 205.866Z" fill="#101820"/>
<path d="M475.342 195.366L460.407 175.965L451.98 176.913L454.198 197.744L447.227 198.529L441.802 147.584L459.038 145.645C463.073 145.191 466.539 145.467 469.437 146.472C472.386 147.472 474.67 149.015 476.287 151.101C477.905 153.187 478.867 155.668 479.173 158.543C479.547 162.051 478.804 165.266 476.944 168.187C475.136 171.103 472.159 173.238 468.013 174.592L483.692 194.426L475.342 195.366ZM451.412 171.578L461.677 170.423C465.456 169.998 468.198 168.802 469.9 166.835C471.598 164.819 472.289 162.325 471.972 159.353C471.65 156.332 470.456 154.099 468.39 152.655C466.375 151.205 463.453 150.696 459.622 151.127L449.357 152.281L451.412 171.578Z" fill="#101820"/>
<path d="M526.9 196.26C521.937 195.787 517.507 194.257 513.612 191.671C509.721 189.036 506.751 185.628 504.703 181.446C502.71 177.22 501.938 172.618 502.388 167.641C502.837 162.663 504.417 158.311 507.127 154.583C509.894 150.81 513.423 148.022 517.714 146.216C522.011 144.362 526.641 143.671 531.604 144.144C536.619 144.622 541.072 146.179 544.963 148.814C548.858 151.4 551.805 154.782 553.802 158.959C555.799 163.136 556.571 167.738 556.117 172.764C555.663 177.79 554.081 182.167 551.37 185.895C548.66 189.623 545.156 192.415 540.86 194.269C536.568 196.075 531.915 196.738 526.9 196.26ZM527.422 190.478C531.158 190.834 534.584 190.324 537.702 188.948C540.871 187.577 543.438 185.434 545.404 182.521C547.422 179.613 548.613 176.133 548.979 172.083C549.349 167.984 548.8 164.339 547.333 161.148C545.922 157.912 543.808 155.324 540.989 153.382C538.171 151.439 534.869 150.288 531.082 149.927C527.296 149.566 523.843 150.073 520.726 151.45C517.608 152.826 515.041 154.968 513.023 157.876C511.062 160.741 509.896 164.222 509.526 168.321C509.16 172.372 509.683 176.014 511.094 179.25C512.557 182.49 514.697 185.081 517.515 187.023C520.384 188.97 523.687 190.122 527.422 190.478Z" fill="#101820"/>
<path d="M644.32 190.787C642.768 194.783 640.057 197.532 636.188 199.033C632.385 200.508 627.602 200.063 621.84 197.698L612.347 193.802L604.557 213.852L598.111 211.206L616.769 163.182L632.708 169.724C638.281 172.011 642 175.055 643.863 178.856C645.774 182.676 645.926 186.653 644.32 190.787ZM623.848 192.53C627.437 194.003 630.376 194.331 632.665 193.513C634.955 192.695 636.643 190.885 637.732 188.083C640.034 182.158 637.69 177.76 630.701 174.892L621.208 170.996L614.355 188.634L623.848 192.53Z" fill="#101820"/>
<path d="M666.508 247.107C662.43 244.372 659.307 240.933 657.141 236.791C655.001 232.607 654.021 228.155 654.2 223.435C654.447 218.701 655.928 214.196 658.642 209.921C661.356 205.646 664.758 202.46 668.848 200.362C673.006 198.251 677.365 197.38 681.926 197.75C686.514 198.078 690.847 199.609 694.926 202.345C699.047 205.108 702.177 208.582 704.317 212.766C706.483 216.908 707.456 221.325 707.234 226.017C707.013 230.709 705.532 235.214 702.792 239.531C700.051 243.848 696.636 247.055 692.547 249.153C688.457 251.25 684.119 252.135 679.531 251.807C674.97 251.437 670.629 249.87 666.508 247.107ZM669.661 242.14C672.731 244.199 675.937 245.333 679.28 245.544C682.666 245.783 685.891 245.047 688.955 243.337C692.06 241.656 694.718 239.076 696.926 235.597C699.161 232.076 700.389 228.537 700.609 224.98C700.898 221.409 700.275 218.093 698.741 215.032C697.207 211.972 694.884 209.398 691.773 207.311C688.661 205.225 685.434 204.076 682.09 203.865C678.747 203.655 675.522 204.39 672.416 206.072C669.379 207.74 666.743 210.334 664.508 213.855C662.299 217.334 661.051 220.859 660.762 224.43C660.515 228.029 661.159 231.359 662.693 234.419C664.269 237.508 666.592 240.082 669.661 242.14Z" fill="#101820"/>
<path d="M769.533 268.82L719.098 292.007L713.618 286.327L736.599 234.685L741.662 239.932L721.44 284.041L764.523 263.626L769.533 268.82Z" fill="#101820"/>
<path d="M785.547 299.889L771.137 310.119L781.699 325.836L777.06 329.129L766.498 313.412L751.655 323.95L763.464 341.523L758.826 344.816L743.232 321.612L786.402 290.965L801.995 314.169L797.357 317.462L785.547 299.889Z" fill="#101820"/>
<path d="M823.534 355.106C825.798 360.256 826.761 365.168 826.422 369.841C826.149 374.537 824.624 378.728 821.846 382.411C819.088 386.14 815.236 389.153 810.29 391.45C805.344 393.748 800.599 394.728 796.053 394.391C791.574 394.077 787.53 392.474 783.92 389.581C780.376 386.711 777.472 382.702 775.208 377.551L768.742 362.846L817.069 340.401L823.534 355.106ZM780.408 375.136C783.089 381.235 786.776 385.126 791.468 386.81C796.206 388.471 801.557 387.918 807.52 385.148C813.529 382.357 817.505 378.552 819.449 373.732C821.413 368.957 821.065 363.543 818.403 357.489L814.649 348.951L776.654 366.598L780.408 375.136Z" fill="#101820"/>
<path d="M810.286 449.303L805.431 427.453L792.927 426.153L791.394 419.253L847.323 425.181L849 432.728L801.104 462.953L799.571 456.053L810.286 449.303ZM815.413 446.133L839.765 430.888L811.388 428.021L815.413 446.133Z" fill="#101820"/>
</svg>
