<svg width="1000" height="1000" viewBox="0 0 1000 1000" fill="none" xmlns="http://www.w3.org/2000/svg">
<circle cx="500" cy="500" r="400" fill="white"/>
<circle cx="500" cy="500" r="322" stroke="#101820" stroke-width="6"/>
<circle cx="500" cy="500" r="392" stroke="#101820" stroke-width="16"/>
<path d="M359.771 470H328.06V380.545H360.033C369.031 380.545 376.777 382.336 383.27 385.918C389.764 389.471 394.758 394.581 398.252 401.249C401.776 407.918 403.537 415.896 403.537 425.185C403.537 434.504 401.776 442.511 398.252 449.209C394.758 455.906 389.735 461.046 383.183 464.627C376.66 468.209 368.856 470 359.771 470ZM346.973 453.795H358.985C364.576 453.795 369.278 452.805 373.093 450.825C376.937 448.816 379.82 445.714 381.741 441.521C383.692 437.299 384.668 431.854 384.668 425.185C384.668 418.575 383.692 413.174 381.741 408.98C379.82 404.787 376.951 401.701 373.137 399.721C369.322 397.74 364.619 396.75 359.028 396.75H346.973V453.795ZM427.921 470H407.654L438.535 380.545H462.908L493.745 470H473.478L451.071 400.987H450.372L427.921 470ZM426.654 434.838H474.527V449.602H426.654V434.838ZM523.425 380.545V470H504.512V380.545H523.425ZM538.986 470V380.545H557.899V454.407H596.249V470H538.986ZM592.121 380.545H613.306L633.704 419.07H634.577L654.975 380.545H676.16L643.531 438.376V470H624.749V438.376L592.121 380.545ZM254.505 545.139V529.545H327.973V545.139H300.586V619H281.891V545.139H254.505ZM340.072 619V529.545H375.364C382.12 529.545 387.886 530.754 392.661 533.171C397.466 535.559 401.12 538.951 403.625 543.348C406.158 547.716 407.425 552.855 407.425 558.767C407.425 564.707 406.143 569.817 403.581 574.098C401.018 578.349 397.306 581.611 392.443 583.882C387.609 586.153 381.756 587.289 374.884 587.289H351.254V572.089H371.826C375.437 572.089 378.436 571.594 380.824 570.604C383.212 569.614 384.988 568.129 386.153 566.148C387.347 564.168 387.944 561.708 387.944 558.767C387.944 555.797 387.347 553.292 386.153 551.254C384.988 549.216 383.197 547.672 380.781 546.624C378.393 545.547 375.379 545.008 371.739 545.008H358.985V619H340.072ZM388.381 578.291L410.613 619H389.735L367.983 578.291H388.381ZM420.79 619V529.545H481.067V545.139H439.703V566.454H477.966V582.048H439.703V603.407H481.242V619H420.79ZM570.926 529.545V619H554.59L515.672 562.698H515.017V619H496.104V529.545H512.702L551.314 585.804H552.1V529.545H570.926ZM618.263 619H586.552V529.545H618.525C627.523 529.545 635.269 531.336 641.762 534.918C648.256 538.471 653.25 543.581 656.744 550.249C660.268 556.918 662.029 564.896 662.029 574.185C662.029 583.504 660.268 591.511 656.744 598.209C653.25 604.906 648.227 610.046 641.675 613.627C635.152 617.209 627.348 619 618.263 619ZM605.465 602.795H617.477C623.068 602.795 627.771 601.805 631.585 599.825C635.429 597.816 638.312 594.714 640.234 590.521C642.185 586.299 643.16 580.854 643.16 574.185C643.16 567.575 642.185 562.174 640.234 557.98C638.312 553.787 635.444 550.701 631.629 548.721C627.814 546.74 623.112 545.75 617.521 545.75H605.465V602.795ZM724.567 555.272C724.217 551.749 722.718 549.012 720.068 547.061C717.418 545.11 713.822 544.134 709.279 544.134C706.193 544.134 703.586 544.571 701.461 545.445C699.335 546.289 697.704 547.468 696.569 548.983C695.462 550.497 694.909 552.215 694.909 554.137C694.851 555.738 695.185 557.136 695.913 558.33C696.671 559.524 697.704 560.558 699.015 561.431C700.325 562.276 701.839 563.018 703.557 563.659C705.275 564.27 707.11 564.794 709.061 565.231L717.098 567.153C721 568.027 724.581 569.191 727.843 570.647C731.104 572.103 733.929 573.894 736.316 576.02C738.704 578.146 740.553 580.65 741.864 583.533C743.203 586.415 743.888 589.721 743.917 593.448C743.888 598.922 742.49 603.669 739.723 607.687C736.986 611.676 733.026 614.778 727.843 616.991C722.689 619.175 716.472 620.267 709.192 620.267C701.97 620.267 695.68 619.16 690.323 616.947C684.994 614.734 680.83 611.458 677.83 607.119C674.86 602.751 673.302 597.35 673.157 590.914H691.458C691.662 593.914 692.521 596.418 694.035 598.427C695.579 600.407 697.631 601.907 700.194 602.926C702.786 603.916 705.712 604.411 708.973 604.411C712.177 604.411 714.957 603.945 717.316 603.013C719.704 602.082 721.553 600.786 722.863 599.126C724.174 597.466 724.829 595.559 724.829 593.404C724.829 591.395 724.232 589.706 723.038 588.337C721.873 586.969 720.155 585.804 717.884 584.843C715.642 583.882 712.89 583.009 709.629 582.222L699.888 579.776C692.346 577.942 686.391 575.074 682.024 571.172C677.656 567.27 675.486 562.013 675.515 555.403C675.486 549.987 676.928 545.255 679.84 541.208C682.781 537.16 686.814 534.001 691.939 531.729C697.064 529.458 702.888 528.322 709.41 528.322C716.049 528.322 721.844 529.458 726.794 531.729C731.774 534.001 735.647 537.16 738.413 541.208C741.179 545.255 742.606 549.944 742.694 555.272H724.567Z" fill="black"/>
</svg>
