<svg width="1000" height="1000" viewBox="0 0 1000 1000" fill="none" xmlns="http://www.w3.org/2000/svg">
<mask id="path-1-inside-1_101_2" fill="white">
<path fill-rule="evenodd" clip-rule="evenodd" d="M100 500H900C900 720.914 720.914 900 500 900C279.086 900 100 720.914 100 500Z"/>
</mask>
<path fill-rule="evenodd" clip-rule="evenodd" d="M100 500H900C900 720.914 720.914 900 500 900C279.086 900 100 720.914 100 500Z" fill="#101820"/>
<path d="M100 500H95V495H100V500ZM900 500V495H905V500H900ZM100 495H900V505H100V495ZM905 500C905 723.675 723.675 905 500 905V895C718.152 895 895 718.152 895 500H905ZM500 905C276.325 905 95 723.675 95 500H105C105 718.152 281.848 895 500 895V905Z" fill="#101820" mask="url(#path-1-inside-1_101_2)"/>
<mask id="path-3-inside-2_101_2" fill="white">
<path fill-rule="evenodd" clip-rule="evenodd" d="M100 500H900C900 279.086 720.914 100 500 100C279.086 100 100 279.086 100 500Z"/>
</mask>
<path fill-rule="evenodd" clip-rule="evenodd" d="M100 500H900C900 279.086 720.914 100 500 100C279.086 100 100 279.086 100 500Z" fill="#FF844B"/>
<path d="M100 500H95V505H100V500ZM900 500V505H905V500H900ZM100 505H900V495H100V505ZM905 500C905 276.325 723.675 95 500 95V105C718.152 105 895 281.848 895 500H905ZM500 95C276.325 95 95 276.325 95 500H105C105 281.848 281.848 105 500 105V95Z" fill="#101820" mask="url(#path-3-inside-2_101_2)"/>
<circle cx="500" cy="500" r="262.5" fill="#FF844B" stroke="#101820" stroke-width="5"/>
<circle cx="500" cy="500" r="250" fill="#101820"/>
<path d="M374.893 610L499.5 350.161L624.107 610H374.893Z" stroke="#FF844B" stroke-width="65"/>
<path d="M451.674 565.474L402.336 666.923" stroke="#101820" stroke-width="35"/>
<path d="M210.971 570.376L205.171 571.867L199.522 546.2L181.105 550.936L185.691 571.774L179.892 573.266L175.305 552.427L150.697 558.755L149 551.046L203.625 537L210.971 570.376Z" fill="#FF844B"/>
<path d="M171.705 629.842L188.138 607.275L184.879 598.368L163.529 607.494L160.833 600.125L213.048 577.807L219.713 596.026C221.274 600.291 221.913 604.169 221.631 607.66C221.369 611.205 220.355 614.198 218.591 616.637C216.827 619.077 214.472 620.926 211.525 622.186C207.929 623.723 204.343 623.945 200.767 622.851C197.21 621.812 194.163 619.245 191.625 615.148L174.934 638.669L171.705 629.842ZM190.348 596.031L194.318 606.881C195.779 610.876 197.774 613.487 200.303 614.716C202.882 615.924 205.694 615.876 208.741 614.574C211.837 613.251 213.869 611.227 214.836 608.504C215.823 605.835 215.576 602.476 214.095 598.428L210.125 587.577L190.348 596.031Z" fill="#FF844B"/>
<path d="M194.871 678.935C192.144 674.138 190.685 669.077 190.494 663.753C190.349 658.398 191.469 653.327 193.854 648.541C196.312 643.774 199.875 639.84 204.542 636.74C209.209 633.64 214.042 631.996 219.042 631.809C224.116 631.641 228.807 632.852 233.115 635.44C237.47 637.999 241.011 641.677 243.738 646.474C246.494 651.321 247.944 656.421 248.089 661.776C248.28 667.1 247.169 672.131 244.756 676.868C242.343 681.605 238.781 685.539 234.068 688.669C229.355 691.8 224.499 693.459 219.499 693.645C214.499 693.832 209.822 692.647 205.468 690.088C201.159 687.499 197.627 683.782 194.871 678.935ZM200.293 675.333C202.346 678.944 204.966 681.666 208.152 683.501C211.367 685.386 214.88 686.187 218.69 685.904C222.529 685.671 226.347 684.293 230.145 681.77C233.988 679.217 236.851 676.157 238.731 672.591C240.686 669.044 241.626 665.32 241.55 661.418C241.475 657.516 240.397 653.735 238.316 650.076C236.235 646.416 233.602 643.668 230.415 641.833C227.228 639.998 223.716 639.197 219.877 639.431C216.112 639.683 212.308 641.086 208.465 643.639C204.667 646.162 201.791 649.196 199.836 652.743C197.91 656.34 196.984 660.089 197.059 663.991C197.163 667.942 198.241 671.723 200.293 675.333Z" fill="#FF844B"/>
<path d="M249.626 753.141L244.699 747.274L257.991 691.196L224.884 723.675L219.957 717.807L261.595 676.961L266.522 682.828L253.289 738.847L286.337 706.427L291.264 712.295L249.626 753.141Z" fill="#FF844B"/>
<path d="M325.839 742.805L322.113 747.835L310.164 737.496L278.799 779.845L273.077 774.893L304.441 732.544L292.429 722.15L296.155 717.12L325.839 742.805Z" fill="#FF844B"/>
<path d="M355.984 769.678L347.642 787.853L365.972 797.682L363.287 803.532L344.957 793.703L336.365 812.424L356.86 823.414L354.175 829.264L327.113 814.752L352.102 760.306L379.164 774.818L376.479 780.668L355.984 769.678Z" fill="#FF844B"/>
<path d="M412.596 851.325L405.602 848.949L390.886 793.289L377.476 839.39L370.482 837.013L387.348 779.033L394.341 781.41L409.082 836.987L422.468 790.969L429.462 793.346L412.596 851.325Z" fill="#FF844B"/>
<path d="M455.696 798.025C461.769 798.865 466.869 800.829 470.998 803.917C475.186 806.954 478.183 810.909 479.988 815.782C481.847 820.663 482.411 826.184 481.682 832.345C480.952 838.506 479.12 843.695 476.184 847.912C473.308 852.079 469.49 855.062 464.729 856.862C460.028 858.611 454.641 859.065 448.568 858.225L431.228 855.827L438.356 795.627L455.696 798.025ZM449.335 851.747C456.526 852.742 462.255 851.457 466.522 847.892C470.795 844.27 473.371 838.744 474.251 831.317C475.137 823.831 473.911 817.722 470.573 812.988C467.289 808.261 462.077 805.404 454.939 804.417L444.871 803.024L439.267 850.355L449.335 851.747Z" fill="#FF844B"/>
<path d="M531.842 799.401C537.915 798.561 543.309 799.073 548.023 800.938C552.785 802.737 556.606 805.749 559.489 809.974C562.425 814.191 564.257 819.38 564.987 825.541C565.716 831.702 565.152 837.223 563.293 842.103C561.481 846.919 558.481 850.845 554.292 853.883C550.15 856.855 545.043 858.761 538.97 859.601L521.63 862L514.502 801.8L531.842 799.401ZM538.203 853.124C545.395 852.129 550.639 849.326 553.938 844.714C557.229 840.045 558.435 833.997 557.555 826.569C556.669 819.084 554.059 813.505 549.726 809.832C545.446 806.152 539.737 804.805 532.599 805.793L522.531 807.186L528.135 854.516L538.203 853.124Z" fill="#FF844B"/>
<path d="M576.9 796.911L582.144 816.391L601.791 810.211L603.479 816.482L583.833 822.661L589.235 842.727L611.202 835.817L612.89 842.088L583.884 851.211L568.173 792.854L597.179 783.73L598.867 790.001L576.9 796.911Z" fill="#FF844B"/>
<path d="M648.042 759.602L652.562 824.286L644.896 828.149L601.969 782.817L609.052 779.248L645.498 818.622L641.032 763.134L648.042 759.602Z" fill="#FF844B"/>
<path d="M662.402 756.597L672.833 773.463L689.844 761.172L693.202 766.602L676.191 778.893L686.935 796.266L705.956 782.524L709.313 787.953L684.199 806.099L652.95 755.571L678.065 737.424L681.422 742.854L662.402 756.597Z" fill="#FF844B"/>
<path d="M724.838 766.126L739.697 752.218L743.599 757.089L723.198 776.184L686.442 730.304L691.984 725.117L724.838 766.126Z" fill="#FF844B"/>
<path d="M770.859 726.324C767.492 730.621 763.499 733.697 758.878 735.553C754.216 737.371 749.41 737.802 744.459 736.845C739.501 735.807 734.932 733.374 730.752 729.548C726.572 725.721 723.62 721.27 721.897 716.193C720.167 711.035 719.769 705.84 720.701 700.608C721.592 695.338 723.721 690.555 727.088 686.258C730.489 681.917 734.521 678.837 739.183 677.019C743.804 675.163 748.572 674.735 753.488 675.736C758.405 676.737 762.973 679.17 767.195 683.034C771.416 686.898 774.388 691.368 776.112 696.444C777.835 701.521 778.251 706.694 777.359 711.963C776.427 717.196 774.26 721.982 770.859 726.324ZM766.002 721.878C768.536 718.644 770.113 715.105 770.732 711.26C771.386 707.371 770.995 703.514 769.559 699.688C768.157 695.819 765.755 692.327 762.353 689.213C758.91 686.062 755.329 684.077 751.608 683.257C747.88 682.355 744.313 682.552 740.907 683.845C737.5 685.139 734.513 687.425 731.945 690.703C729.376 693.982 727.782 697.543 727.163 701.388C726.543 705.233 726.934 709.09 728.336 712.96C729.732 716.747 732.151 720.217 735.594 723.368C738.996 726.482 742.56 728.489 746.287 729.391C750.049 730.248 753.634 730.03 757.04 728.736C760.481 727.398 763.469 725.112 766.002 721.878Z" fill="#FF844B"/>
<path d="M781.697 631.612C785.726 634.17 788.268 637.803 789.322 642.511C790.357 647.14 789.215 652.508 785.897 658.614L780.43 668.676L800.644 681.508L796.932 688.34L748.515 657.605L757.695 640.711C760.904 634.805 764.658 631.162 768.957 629.785C773.283 628.357 777.53 628.966 781.697 631.612ZM780.687 655.307C782.754 651.503 783.513 648.215 782.964 645.443C782.415 642.671 780.728 640.388 777.903 638.595C771.929 634.802 766.93 636.61 762.904 644.018L757.438 654.079L775.22 665.368L780.687 655.307Z" fill="#FF844B"/>
<path d="M778.829 610.299L796.193 618.002L803.962 597.542L809.552 600.021L801.783 620.482L819.669 628.416L828.355 605.539L833.945 608.018L822.475 638.226L770.456 615.15L781.926 584.942L787.515 587.422L778.829 610.299Z" fill="#FF844B"/>
<path d="M846.87 558.872L821.353 566.876L819.204 576.168L841.477 582.187L839.699 589.874L785.227 575.154L789.623 556.147C790.652 551.698 792.222 548.143 794.332 545.482C796.455 542.765 798.891 540.97 801.639 540.097C804.388 539.224 807.299 539.203 810.373 540.034C814.124 541.047 817.159 543.124 819.478 546.264C821.809 549.347 822.903 553.353 822.76 558.28L849 549.664L846.87 558.872ZM813.499 574.626L816.117 563.307C817.081 559.139 816.866 555.76 815.472 553.17C814.026 550.565 811.714 548.833 808.536 547.974C805.306 547.101 802.564 547.467 800.311 549.072C798.07 550.621 796.461 553.507 795.485 557.731L792.866 569.05L813.499 574.626Z" fill="#FF844B"/>
<path d="M192.553 433.5L187.698 455.35L198.413 462.1L196.88 469L149 438.703L150.677 431.156L206.59 425.3L205.057 432.2L192.553 433.5ZM186.596 434.068L158.219 436.935L182.571 452.18L186.596 434.068Z" fill="#101820"/>
<path d="M209.534 398.099L216.202 381.335L221.424 383.53L212.27 406.545L163.078 385.876L165.565 379.624L209.534 398.099Z" fill="#101820"/>
<path d="M190.564 337.631L205.737 346.806L215.116 330.422L220 333.376L210.621 349.76L226.251 359.211L236.737 340.891L241.621 343.845L227.775 368.034L182.32 340.548L196.165 316.359L201.05 319.312L190.564 337.631Z" fill="#101820"/>
<path d="M228.509 271.374L258.209 296.502C261.515 299.3 263.342 302.576 263.688 306.331C263.996 310.054 262.793 313.61 260.079 316.998C257.335 320.425 254.136 322.324 250.484 322.697C246.793 323.037 243.199 321.727 239.7 318.767L243.957 313.451C245.949 315.071 247.95 315.915 249.96 315.982C252.002 316.01 253.818 315.032 255.408 313.046C256.999 311.059 257.607 309.092 257.234 307.142C256.822 305.16 255.712 303.405 253.905 301.876L224.205 276.748L228.509 271.374Z" fill="#101820"/>
<path d="M299.431 257.473L282.164 272.585L286.389 284.308L280.936 289.08L262.138 236.584L268.102 231.364L315.471 258.858L310.018 263.63L299.431 257.473ZM294.419 254.498L270.443 240.459L280.105 267.024L294.419 254.498Z" fill="#101820"/>
<path d="M366.1 226.357L360.073 229.785L316.299 207.291L335.834 243.572L329.808 247L305.239 201.37L311.265 197.942L355.005 220.371L335.504 184.155L341.531 180.727L366.1 226.357Z" fill="#101820"/>
<path d="M387.023 161.946C392.582 160.174 397.691 159.656 402.35 160.39C407.043 161.062 411.023 162.915 414.291 165.95C417.607 168.97 420.025 172.998 421.544 178.035C423.064 183.072 423.287 187.799 422.214 192.217C421.176 196.573 418.906 200.392 415.406 203.674C411.941 206.894 407.428 209.39 401.868 211.162L385.994 216.22L371.148 167.004L387.023 161.946ZM400.271 205.866C406.855 203.768 411.374 200.496 413.828 196.05C416.268 191.558 416.573 186.275 414.741 180.203C412.895 174.083 409.698 169.865 405.15 167.547C400.651 165.214 395.134 165.089 388.599 167.171L379.381 170.108L391.053 208.803L400.271 205.866Z" fill="#101820"/>
<path d="M475.342 195.366L460.407 175.965L451.98 176.913L454.198 197.744L447.227 198.529L441.802 147.584L459.038 145.645C463.073 145.191 466.539 145.467 469.437 146.472C472.386 147.472 474.67 149.015 476.287 151.101C477.905 153.187 478.867 155.668 479.173 158.543C479.547 162.051 478.804 165.266 476.944 168.187C475.136 171.103 472.159 173.238 468.013 174.592L483.692 194.426L475.342 195.366ZM451.412 171.578L461.677 170.423C465.456 169.998 468.198 168.802 469.9 166.835C471.598 164.819 472.289 162.325 471.972 159.353C471.65 156.332 470.456 154.099 468.39 152.655C466.375 151.205 463.453 150.696 459.622 151.127L449.357 152.281L451.412 171.578Z" fill="#101820"/>
<path d="M526.9 196.26C521.937 195.787 517.507 194.257 513.612 191.671C509.721 189.036 506.751 185.628 504.703 181.446C502.71 177.22 501.938 172.618 502.388 167.641C502.837 162.663 504.417 158.311 507.127 154.583C509.894 150.81 513.423 148.022 517.714 146.216C522.011 144.362 526.641 143.671 531.604 144.144C536.619 144.622 541.072 146.179 544.963 148.814C548.858 151.4 551.805 154.782 553.802 158.959C555.799 163.136 556.571 167.738 556.117 172.764C555.663 177.79 554.081 182.167 551.37 185.895C548.66 189.623 545.156 192.415 540.86 194.269C536.568 196.075 531.915 196.738 526.9 196.26ZM527.422 190.478C531.158 190.834 534.584 190.324 537.702 188.948C540.871 187.577 543.438 185.434 545.404 182.521C547.422 179.613 548.613 176.133 548.979 172.083C549.349 167.984 548.8 164.339 547.333 161.148C545.922 157.912 543.808 155.324 540.989 153.382C538.171 151.439 534.869 150.288 531.082 149.927C527.296 149.566 523.843 150.073 520.726 151.45C517.608 152.826 515.041 154.968 513.023 157.876C511.062 160.741 509.896 164.222 509.526 168.321C509.16 172.372 509.683 176.014 511.094 179.25C512.557 182.49 514.697 185.081 517.515 187.023C520.384 188.97 523.687 190.122 527.422 190.478Z" fill="#101820"/>
<path d="M644.32 190.787C642.768 194.783 640.057 197.532 636.188 199.033C632.385 200.508 627.602 200.063 621.84 197.698L612.347 193.802L604.557 213.852L598.111 211.206L616.769 163.182L632.708 169.724C638.281 172.011 642 175.055 643.863 178.856C645.774 182.676 645.926 186.653 644.32 190.787ZM623.848 192.53C627.437 194.003 630.376 194.331 632.665 193.513C634.955 192.695 636.643 190.885 637.732 188.083C640.034 182.158 637.69 177.76 630.701 174.892L621.208 170.996L614.355 188.634L623.848 192.53Z" fill="#101820"/>
<path d="M666.508 247.107C662.429 244.372 659.307 240.933 657.141 236.791C655.001 232.607 654.021 228.155 654.2 223.435C654.447 218.701 655.928 214.196 658.642 209.921C661.356 205.646 664.758 202.46 668.848 200.362C673.006 198.251 677.365 197.38 681.926 197.75C686.514 198.078 690.847 199.609 694.926 202.345C699.047 205.108 702.177 208.582 704.317 212.766C706.483 216.908 707.456 221.325 707.234 226.017C707.013 230.709 705.532 235.214 702.792 239.531C700.051 243.848 696.636 247.055 692.547 249.153C688.457 251.25 684.119 252.135 679.531 251.807C674.97 251.437 670.629 249.871 666.508 247.107ZM669.661 242.14C672.731 244.199 675.937 245.333 679.28 245.544C682.666 245.783 685.891 245.047 688.955 243.337C692.06 241.656 694.718 239.076 696.926 235.597C699.161 232.076 700.389 228.537 700.609 224.98C700.898 221.409 700.275 218.093 698.741 215.032C697.207 211.972 694.884 209.398 691.773 207.311C688.661 205.225 685.434 204.076 682.09 203.865C678.747 203.655 675.522 204.39 672.416 206.072C669.379 207.74 666.743 210.334 664.508 213.855C662.299 217.334 661.051 220.859 660.762 224.43C660.515 228.029 661.159 231.359 662.693 234.419C664.269 237.508 666.592 240.082 669.661 242.14Z" fill="#101820"/>
<path d="M769.533 268.82L719.098 292.007L713.618 286.327L736.599 234.685L741.662 239.932L721.44 284.041L764.523 263.626L769.533 268.82Z" fill="#101820"/>
<path d="M785.547 299.889L771.137 310.119L781.699 325.836L777.06 329.129L766.498 313.412L751.655 323.95L763.464 341.523L758.826 344.816L743.232 321.612L786.402 290.965L801.995 314.169L797.357 317.462L785.547 299.889Z" fill="#101820"/>
<path d="M823.534 355.106C825.798 360.256 826.761 365.168 826.422 369.841C826.149 374.537 824.624 378.728 821.846 382.411C819.088 386.14 815.236 389.153 810.29 391.45C805.345 393.748 800.599 394.728 796.053 394.391C791.574 394.077 787.53 392.474 783.92 389.581C780.376 386.711 777.472 382.702 775.208 377.551L768.742 362.846L817.069 340.401L823.534 355.106ZM780.408 375.136C783.089 381.235 786.776 385.126 791.468 386.81C796.206 388.471 801.557 387.918 807.52 385.148C813.529 382.357 817.505 378.552 819.449 373.732C821.413 368.957 821.065 363.543 818.403 357.489L814.649 348.951L776.654 366.598L780.408 375.136Z" fill="#101820"/>
<path d="M810.286 449.303L805.431 427.453L792.927 426.153L791.394 419.253L847.323 425.181L849 432.728L801.104 462.953L799.571 456.053L810.286 449.303ZM815.413 446.133L839.765 430.888L811.388 428.021L815.413 446.133Z" fill="#101820"/>
</svg>
